<svg width="34" height="34" viewBox="0 0 34 34" fill="none" xmlns="http://www.w3.org/2000/svg">
<path d="M28 16.5385V13.871C28 12.2854 26.7146 11 25.129 11H5V26.129C5 27.7146 6.28539 29 7.87099 29H25.129C26.7146 29 28 27.7146 28 26.129V23.8077" stroke="black" stroke-width="2.4"/>
<path d="M5.00001 6C5.00001 5.44771 5.44772 5 6.00001 5H22.129C23.7146 5 25 6.28539 25 7.871L25 11H5L5.00001 6Z" stroke="black" stroke-width="2.4"/>
<path d="M19.2944 20.3551C19.2944 18.3731 20.9012 16.7664 22.8832 16.7664H28.6252C29.418 16.7664 30.0607 17.4091 30.0607 18.2019V22.5083C30.0607 23.3012 29.418 23.9438 28.6252 23.9438H22.8832C20.9012 23.9438 19.2944 22.3371 19.2944 20.3551Z" stroke="black" stroke-width="2.4"/>
<circle cx="23.25" cy="20.25" r="1.25" fill="black"/>
</svg>
